<svg width="144" height="49" viewBox="0 0 144 49" fill="none" xmlns="http://www.w3.org/2000/svg">
<g clip-path="url(#clip0_1_107)">
<g clip-path="url(#clip1_1_107)">
<g clip-path="url(#clip2_1_107)">
<path d="M132.378 0.0499607H11.6581C11.2181 0.0499607 10.7833 0.0499607 10.3445 0.0523607C9.97709 0.0547607 9.61264 0.0617327 9.24173 0.0676007C8.43595 0.0770829 7.63206 0.147972 6.83705 0.279653C6.04316 0.4142 5.27414 0.66786 4.55599 1.03205C3.83873 1.39933 3.18334 1.87656 2.61361 2.44644C2.04089 3.01473 1.56349 3.67158 1.19975 4.39175C0.83501 5.11049 0.582098 5.88069 0.44975 6.67574C0.316143 7.46978 0.244248 8.27299 0.23471 9.07814C0.223574 9.44606 0.222398 9.8152 0.21653 10.1832V37.9203C0.222398 38.2929 0.223574 38.6538 0.23471 39.0266C0.244251 39.8317 0.316146 40.6348 0.44975 41.4288C0.581733 42.2244 0.83466 42.995 1.19975 43.714C1.56332 44.4318 2.04079 45.086 2.61361 45.6512C3.18118 46.2236 3.83699 46.7011 4.55599 47.0656C5.27413 47.4308 6.04307 47.6859 6.83705 47.8226C7.63219 47.9532 8.436 48.0241 9.24173 48.0347C9.61264 48.0429 9.97709 48.0476 10.3445 48.0476C10.7833 48.05 11.2181 48.05 11.6581 48.05H132.378C132.81 48.05 133.248 48.05 133.679 48.0476C134.045 48.0476 134.42 48.0429 134.785 48.0347C135.59 48.0247 136.392 47.9538 137.185 47.8226C137.982 47.685 138.754 47.4299 139.475 47.0656C140.194 46.7009 140.849 46.2234 141.416 45.6512C141.987 45.0838 142.466 44.4301 142.834 43.714C143.196 42.9945 143.447 42.2239 143.577 41.4288C143.71 40.6347 143.785 39.8317 143.799 39.0266C143.804 38.6538 143.804 38.2929 143.804 37.9203C143.813 37.4843 143.813 37.0508 143.813 36.6077V11.4933C143.813 11.0539 143.813 10.6179 143.804 10.1832C143.804 9.8152 143.804 9.44606 143.799 9.07809C143.785 8.27287 143.71 7.46984 143.577 6.67569C143.446 5.8811 143.196 5.11096 142.834 4.3917C142.093 2.9482 140.918 1.77319 139.475 1.03194C138.754 0.668642 137.982 0.415049 137.185 0.279545C136.392 0.147284 135.59 0.07637 134.785 0.0674327C134.42 0.0615767 134.045 0.0545447 133.679 0.0522047C133.248 0.0498047 132.81 0.0499607 132.378 0.0499607Z" fill="#A6A6A6"/>
<path d="M10.3503 46.9996C9.98471 46.9996 9.62793 46.9949 9.26518 46.9868C8.51372 46.977 7.76401 46.9116 7.02221 46.791C6.33052 46.6719 5.66046 46.4503 5.03413 46.1336C4.41354 45.8194 3.84751 45.4075 3.35773 44.9136C2.86085 44.4256 2.44719 43.8595 2.13311 43.2378C1.81558 42.6122 1.59583 41.9415 1.48151 41.2492C1.35806 40.5053 1.29127 39.7532 1.28171 38.9992C1.2741 38.7461 1.26414 37.9035 1.26414 37.9035V10.1828C1.26414 10.1828 1.27475 9.35312 1.28177 9.10937C1.29092 8.35659 1.35733 7.60559 1.48041 6.86288C1.59494 6.16871 1.81486 5.49611 2.13256 4.86836C2.44548 4.24714 2.85685 3.68064 3.35073 3.19083C3.84405 2.69636 4.41189 2.28233 5.03354 1.96386C5.65843 1.64812 6.32723 1.42809 7.01752 1.31113C7.76176 1.18941 8.51407 1.1236 9.26813 1.11426L10.3509 1.09961H133.673L134.769 1.11485C135.516 1.12373 136.262 1.18895 136.999 1.30996C137.696 1.42838 138.372 1.64995 139.004 1.96738C140.249 2.60919 141.263 3.6246 141.902 4.87129C142.215 5.4947 142.431 6.16182 142.544 6.85C142.669 7.5988 142.739 8.3557 142.753 9.11465C142.756 9.45449 142.756 9.81953 142.756 10.1828C142.766 10.6328 142.766 11.0611 142.766 11.493V36.6074C142.766 37.0433 142.766 37.4687 142.756 37.8976C142.756 38.2878 142.756 38.6453 142.752 39.0132C142.738 39.7587 142.669 40.502 142.547 41.2374C142.435 41.9347 142.216 42.6106 141.899 43.2414C141.582 43.8563 141.171 44.4175 140.68 44.9043C140.19 45.4008 139.623 45.8151 139.001 46.1313C138.37 46.4505 137.696 46.6729 136.999 46.791C136.257 46.9122 135.507 46.9776 134.756 46.9868C134.404 46.9949 134.036 46.9996 133.679 46.9996L132.378 47.002L10.3503 46.9996Z" fill="black"/>
<path d="M29.9392 24.4106C29.9521 23.409 30.2181 22.4269 30.7126 21.5558C31.207 20.6847 31.9137 19.9527 32.7671 19.4281C32.225 18.6539 31.5098 18.0168 30.6784 17.5673C29.8471 17.1179 28.9223 16.8685 27.9777 16.8389C25.9626 16.6274 24.009 18.0447 22.9822 18.0447C21.9355 18.0447 20.3545 16.8599 18.652 16.8949C17.5508 16.9305 16.4776 17.2507 15.5369 17.8244C14.5963 18.3981 13.8202 19.2056 13.2845 20.1684C10.9637 24.1865 12.6948 30.0917 14.9179 33.3397C16.0302 34.9301 17.3301 36.7066 19.0311 36.6436C20.6955 36.5746 21.3172 35.5823 23.3264 35.5823C25.3169 35.5823 25.9001 36.6436 27.6356 36.6036C29.4216 36.5746 30.5469 35.0061 31.6202 33.4006C32.4193 32.2674 33.0343 31.0149 33.4423 29.6896C32.4046 29.2507 31.5191 28.5161 30.8962 27.5774C30.2732 26.6386 29.9404 25.5372 29.9392 24.4106Z" fill="white"/>
<path d="M26.6612 14.7029C27.6351 13.5339 28.1148 12.0312 27.9987 10.5142C26.5109 10.6704 25.1365 11.3815 24.1496 12.5057C23.667 13.0549 23.2974 13.6938 23.0619 14.3859C22.8264 15.0781 22.7296 15.8098 22.7771 16.5394C23.5213 16.547 24.2575 16.3857 24.9303 16.0676C25.6031 15.7495 26.1949 15.2829 26.6612 14.7029Z" fill="white"/>
<path d="M50.9793 32.6175H45.2992L43.9351 36.6453H41.5293L46.9093 21.7437H49.4089L54.789 36.6453H52.3421L50.9793 32.6175ZM45.8875 30.7589H50.3899L48.1703 24.2222H48.1082L45.8875 30.7589Z" fill="white"/>
<path d="M66.4082 31.2135C66.4082 34.5897 64.6011 36.7588 61.8742 36.7588C61.1834 36.795 60.4964 36.6359 59.8918 36.2997C59.2873 35.9635 58.7896 35.4639 58.4558 34.858H58.4042V40.2393H56.1741V25.7807H58.3328V27.5877H58.3738C58.7229 26.9848 59.229 26.4878 59.8382 26.1495C60.4473 25.8113 61.1368 25.6446 61.8332 25.667C64.5905 25.6671 66.4082 27.8467 66.4082 31.2135ZM64.116 31.2135C64.116 29.0139 62.9792 27.5678 61.2449 27.5678C59.541 27.5678 58.3949 29.0444 58.3949 31.2135C58.3949 33.4026 59.541 34.8686 61.2449 34.8686C62.9793 34.8686 64.116 33.4331 64.116 31.2135Z" fill="white"/>
<path d="M78.366 31.2135C78.366 34.5897 76.5589 36.7588 73.832 36.7588C73.1412 36.795 72.4542 36.6358 71.8497 36.2997C71.2451 35.9635 70.7474 35.4639 70.4136 34.858H70.362V40.2393H68.132V25.7807H70.2905V27.5877H70.3316C70.6807 26.9848 71.1868 26.4878 71.7959 26.1495C72.4051 25.8113 73.0945 25.6446 73.7909 25.667C76.5484 25.667 78.366 27.8467 78.366 31.2135ZM76.0738 31.2135C76.0738 29.0139 74.9371 27.5678 73.2027 27.5678C71.4988 27.5678 70.3527 29.0444 70.3527 31.2135C70.3527 33.4026 71.4988 34.8686 73.2027 34.8686C74.9371 34.8686 76.0738 33.4331 76.0738 31.2135Z" fill="white"/>
<path d="M86.2691 32.4932C86.4343 33.971 87.8699 34.9412 89.8316 34.9412C91.7113 34.9412 93.0636 33.9709 93.0636 32.6385C93.0636 31.4818 92.248 30.7893 90.3168 30.3147L88.3855 29.8494C85.6492 29.1885 84.3789 27.9088 84.3789 25.8322C84.3789 23.2611 86.6195 21.4951 89.8011 21.4951C92.9499 21.4951 95.1086 23.2611 95.1812 25.8322H92.93C92.7953 24.3451 91.5659 23.4475 89.7695 23.4475C87.973 23.4475 86.7437 24.3557 86.7437 25.6775C86.7437 26.7311 87.5288 27.351 89.4495 27.8255L91.0913 28.2287C94.1487 28.9517 95.4191 30.1799 95.4191 32.3595C95.4191 35.1474 93.1984 36.8935 89.6663 36.8935C86.3616 36.8935 84.1304 35.1884 83.9863 32.4931L86.2691 32.4932Z" fill="white"/>
<path d="M100.232 23.2095V25.7806H102.298V27.5466H100.232V33.536C100.232 34.4665 100.646 34.9001 101.554 34.9001C101.799 34.8958 102.044 34.8786 102.287 34.8485V36.604C101.879 36.6803 101.464 36.7148 101.049 36.7071C98.8492 36.7071 97.9914 35.8809 97.9914 33.7739V27.5466H96.4117V25.7806H97.9913V23.2095H100.232Z" fill="white"/>
<path d="M103.495 31.2134C103.495 27.795 105.508 25.647 108.647 25.647C111.797 25.647 113.801 27.795 113.801 31.2134C113.801 34.6411 111.808 36.7798 108.647 36.7798C105.488 36.7798 103.495 34.6411 103.495 31.2134ZM111.529 31.2134C111.529 28.8685 110.454 27.4845 108.647 27.4845C106.84 27.4845 105.767 28.879 105.767 31.2134C105.767 33.5677 106.84 34.9411 108.647 34.9411C110.454 34.9411 111.529 33.5677 111.529 31.2134Z" fill="white"/>
<path d="M115.64 25.7806H117.767V27.6298H117.818C117.962 27.0523 118.301 26.5419 118.777 26.1844C119.252 25.827 119.837 25.6442 120.432 25.6669C120.689 25.666 120.945 25.6939 121.196 25.7501V27.8361C120.871 27.7369 120.533 27.6914 120.194 27.7013C119.87 27.6882 119.547 27.7453 119.247 27.8688C118.947 27.9922 118.678 28.1791 118.457 28.4166C118.236 28.654 118.069 28.9365 117.968 29.2445C117.867 29.5525 117.833 29.8788 117.87 30.2009V36.6451H115.64L115.64 25.7806Z" fill="white"/>
<path d="M131.478 33.454C131.178 35.4263 129.257 36.7798 126.8 36.7798C123.639 36.7798 121.677 34.6622 121.677 31.2649C121.677 27.8571 123.65 25.647 126.706 25.647C129.712 25.647 131.602 27.7118 131.602 31.006V31.77H123.928V31.9048C123.893 32.3046 123.943 32.7074 124.075 33.0864C124.208 33.4654 124.419 33.812 124.695 34.103C124.972 34.3941 125.307 34.623 125.679 34.7746C126.05 34.9261 126.45 34.9969 126.851 34.9821C127.378 35.0315 127.907 34.9094 128.359 34.6341C128.811 34.3588 129.162 33.9449 129.36 33.454L131.478 33.454ZM123.939 30.2114H129.371C129.391 29.8519 129.336 29.4921 129.211 29.1547C129.085 28.8172 128.891 28.5094 128.641 28.2505C128.39 27.9916 128.089 27.7871 127.756 27.6501C127.424 27.513 127.066 27.4463 126.706 27.454C126.343 27.4518 125.983 27.5216 125.647 27.6593C125.311 27.797 125.005 27.9999 124.748 28.2562C124.491 28.5126 124.287 28.8174 124.148 29.1529C124.009 29.4885 123.938 29.8483 123.939 30.2114Z" fill="white"/>
<path d="M43.0216 17.687V10.5269H45.8998C47.2451 10.5269 48.0537 11.2112 48.0537 12.3128C48.054 12.6747 47.9292 13.0255 47.7005 13.3059C47.4717 13.5863 47.1531 13.7791 46.7986 13.8515V13.9358C47.2385 13.9566 47.653 14.1481 47.954 14.4695C48.2551 14.7909 48.4191 15.217 48.4111 15.6573C48.4111 16.9177 47.4935 17.687 45.9642 17.687L43.0216 17.687ZM44.1337 13.5584H45.4533C46.4365 13.5584 46.9474 13.1963 46.9474 12.5166C46.9474 11.8563 46.4658 11.4696 45.642 11.4696H44.1337V13.5584ZM45.7416 16.7442C46.7436 16.7442 47.2744 16.337 47.2744 15.5782C47.2744 14.8288 46.7236 14.4368 45.6771 14.4368H44.1337V16.7442H45.7416Z" fill="white"/>
<path d="M49.5537 16.1589C49.5537 15.1862 50.2779 14.6255 51.5634 14.5458L53.0271 14.4614V13.995C53.0271 13.4243 52.6498 13.102 51.9209 13.102C51.3255 13.102 50.913 13.3206 50.7947 13.7026H49.7623C49.8712 12.7745 50.7443 12.1792 51.9701 12.1792C53.3248 12.1792 54.0888 12.8536 54.0888 13.995V17.687H53.0623V16.9276H52.9779C52.8066 17.2 52.5661 17.4221 52.281 17.5711C51.9959 17.7202 51.6763 17.7909 51.3548 17.776C51.128 17.7996 50.8987 17.7754 50.6818 17.705C50.4649 17.6346 50.2652 17.5194 50.0955 17.3671C49.9258 17.2147 49.7899 17.0285 49.6966 16.8204C49.6032 16.6123 49.5546 16.3869 49.5537 16.1589ZM53.0271 15.6972V15.2454L51.7076 15.3298C50.9634 15.3796 50.6259 15.6327 50.6259 16.1091C50.6259 16.5954 51.0478 16.8784 51.6279 16.8784C51.7979 16.8956 51.9696 16.8784 52.1328 16.8279C52.296 16.7774 52.4474 16.6946 52.5779 16.5844C52.7085 16.4742 52.8155 16.3388 52.8927 16.1864C52.9698 16.034 53.0156 15.8676 53.0271 15.6972Z" fill="white"/>
<path d="M55.6193 10.6855C55.6111 10.5474 55.6445 10.41 55.7153 10.2911C55.7861 10.1722 55.8909 10.0773 56.0163 10.0187C56.1416 9.96007 56.2816 9.94042 56.4183 9.96231C56.5549 9.9842 56.6818 10.0466 56.7825 10.1415C56.8833 10.2363 56.9532 10.3592 56.9833 10.4943C57.0134 10.6293 57.0022 10.7703 56.9513 10.8989C56.9003 11.0276 56.8119 11.1379 56.6975 11.2157C56.5831 11.2936 56.4479 11.3352 56.3096 11.3353C56.2211 11.3399 56.1327 11.3264 56.0496 11.2959C55.9665 11.2653 55.8904 11.2183 55.8259 11.1576C55.7614 11.0969 55.7099 11.0238 55.6744 10.9427C55.6389 10.8616 55.6202 10.7741 55.6193 10.6855ZM55.7775 12.2834H56.8404V17.6869H55.7775L55.7775 12.2834Z" fill="white"/>
<path d="M60.5001 15.7713L59.3189 17.6867H58.1482L59.94 14.9973L58.133 12.2832H59.3787L60.54 14.1887H60.6244L61.7752 12.2832H62.9611L61.1799 14.9527L62.9811 17.6867H61.7564L60.5798 15.7713H60.5001Z" fill="white"/>
<path d="M63.922 16.1589C63.922 15.1862 64.6462 14.6255 65.9318 14.5458L67.3955 14.4614V13.995C67.3955 13.4243 67.0181 13.102 66.2892 13.102C65.6939 13.102 65.2814 13.3206 65.163 13.7026H64.1306C64.2396 12.7745 65.1127 12.1792 66.3384 12.1792C67.6931 12.1792 68.4572 12.8536 68.4572 13.995V17.687H67.4306V16.9276H67.3462C67.175 17.2 66.9345 17.4221 66.6494 17.5711C66.3642 17.7202 66.0446 17.7909 65.7232 17.776C65.4964 17.7996 65.2671 17.7754 65.0502 17.705C64.8333 17.6346 64.6335 17.5194 64.4638 17.3671C64.2941 17.2147 64.1582 17.0285 64.0649 16.8204C63.9716 16.6123 63.9229 16.3869 63.922 16.1589ZM67.3955 15.6972V15.2454L66.0759 15.3298C65.3318 15.3796 64.9943 15.6327 64.9943 16.1091C64.9943 16.5954 65.4162 16.8784 65.9963 16.8784C66.1663 16.8956 66.338 16.8784 66.5012 16.8279C66.6644 16.7774 66.8157 16.6946 66.9463 16.5844C67.0768 16.4742 67.1839 16.3388 67.261 16.1864C67.3382 16.034 67.3839 15.8676 67.3955 15.6972Z" fill="white"/>
<path d="M70.1271 12.2834H71.1537V13.1119H71.2334C71.3483 12.8243 71.5514 12.5805 71.8135 12.4155C72.0757 12.2506 72.3833 12.1729 72.6923 12.1937C72.8521 12.1916 73.0116 12.2065 73.1681 12.2383V13.2907C72.9724 13.2489 72.7729 13.2273 72.5728 13.2262C72.3969 13.2104 72.2197 13.2316 72.0525 13.2884C71.8852 13.3452 71.7318 13.4363 71.6019 13.5559C71.472 13.6756 71.3685 13.8211 71.2982 13.983C71.2279 14.145 71.1922 14.3199 71.1935 14.4965V17.687H70.1271L70.1271 12.2834Z" fill="white"/>
<path d="M77.2779 12.2835H78.3051V13.1418H78.3848C78.52 12.8335 78.748 12.5751 79.037 12.4025C79.3261 12.23 79.6617 12.1519 79.9973 12.1791C80.2602 12.1594 80.5242 12.199 80.7697 12.2951C81.0152 12.3913 81.236 12.5414 81.4156 12.7344C81.5952 12.9274 81.7291 13.1584 81.8073 13.4101C81.8856 13.6619 81.9062 13.9281 81.8676 14.1889V17.6869H80.8012V14.4567C80.8012 13.5883 80.4238 13.1565 79.6352 13.1565C79.4567 13.1482 79.2785 13.1786 79.1128 13.2456C78.9471 13.3126 78.7979 13.4146 78.6753 13.5446C78.5528 13.6747 78.4598 13.8297 78.4028 13.9991C78.3458 14.1684 78.326 14.3481 78.3449 14.5258V17.687H77.2779L77.2779 12.2835Z" fill="white"/>
<path d="M83.2093 16.1589C83.2093 15.1862 83.9335 14.6255 85.2191 14.5458L86.6828 14.4614V13.995C86.6828 13.4243 86.3054 13.102 85.5765 13.102C84.9812 13.102 84.5687 13.3206 84.4503 13.7026H83.4179C83.5269 12.7745 84.4 12.1792 85.6257 12.1792C86.9804 12.1792 87.7445 12.8536 87.7445 13.995V17.687H86.7179V16.9276H86.6335C86.4623 17.2 86.2218 17.4221 85.9367 17.5711C85.6515 17.7202 85.3319 17.7909 85.0105 17.776C84.7837 17.7996 84.5544 17.7754 84.3375 17.705C84.1206 17.6346 83.9208 17.5194 83.7511 17.3671C83.5814 17.2147 83.4455 17.0285 83.3522 16.8204C83.2589 16.6123 83.2102 16.3869 83.2093 16.1589ZM86.6828 15.6972V15.2454L85.3632 15.3298C84.6191 15.3796 84.2816 15.6327 84.2816 16.1091C84.2816 16.5954 84.7035 16.8784 85.2836 16.8784C85.4536 16.8956 85.6253 16.8784 85.7885 16.8279C85.9517 16.7774 86.103 16.6946 86.2336 16.5844C86.3641 16.4742 86.4712 16.3388 86.5483 16.1864C86.6255 16.034 86.6712 15.8676 86.6828 15.6972Z" fill="white"/>
</g>
</g>
</g>
<defs>
<clipPath id="clip0_1_107">
<rect width="143.59" height="48" fill="white" transform="translate(0.219971 0.0498047)"/>
</clipPath>
<clipPath id="clip1_1_107">
<rect width="143.59" height="48" fill="white" transform="translate(0.219971 0.0498047)"/>
</clipPath>
<clipPath id="clip2_1_107">
<rect width="143.597" height="48" fill="white" transform="translate(0.21653 0.0498047)"/>
</clipPath>
</defs>
</svg>
