<svg width="40" height="41" viewBox="0 0 40 41" fill="none" xmlns="http://www.w3.org/2000/svg">
<path d="M20 38.6176C29.8184 38.6176 37.7778 30.6582 37.7778 20.8398C37.7778 11.0214 29.8184 3.06201 20 3.06201C10.1816 3.06201 2.22222 11.0214 2.22222 20.8398C2.22222 30.6582 10.1816 38.6176 20 38.6176Z" stroke="#18242E" stroke-width="1.77778" stroke-miterlimit="10"/>
<path d="M20 11.1509C14.5778 11.1509 10.2222 15.5064 10.2222 20.9287C10.2222 25.8175 13.7778 29.8175 18.4889 30.6175V23.7731H16V20.9287H18.4889V18.7953C18.4889 16.3064 19.9111 14.9731 22.2222 14.9731C23.2889 14.9731 24.4444 15.1509 24.4444 15.1509V17.5509H23.1111C21.8667 17.5509 21.5111 18.262 21.5111 19.062V20.9287H24.2667L23.8222 23.7731H21.5111V30.6175C26.2222 29.9064 29.7778 25.8175 29.7778 20.9287C29.7778 15.5064 25.4222 11.1509 20 11.1509Z" fill="#18242E"/>
</svg>
