<svg width="40" height="41" viewBox="0 0 40 41" fill="none" xmlns="http://www.w3.org/2000/svg">
<path d="M20 38.6176C29.8184 38.6176 37.7778 30.6582 37.7778 20.8398C37.7778 11.0214 29.8184 3.06201 20 3.06201C10.1816 3.06201 2.22222 11.0214 2.22222 20.8398C2.22222 30.6582 10.1816 38.6176 20 38.6176Z" stroke="#18242E" stroke-width="1.77778" stroke-miterlimit="10"/>
<path d="M20 12.8398C22.5778 12.8398 22.9333 12.8398 23.9111 12.9287C24.8889 12.9287 25.4222 13.1065 25.6889 13.2842C26.1333 13.462 26.4889 13.6398 26.8444 13.9953C27.2 14.3509 27.3778 14.7065 27.5556 15.1509C27.7333 15.5065 27.8222 16.0398 27.9111 16.9287C28 17.9953 28 18.262 28 20.8398C28 23.4176 28 23.7731 27.9111 24.7509C27.9111 25.7287 27.7333 26.262 27.5556 26.5287C27.3778 26.9731 27.2 27.3287 26.8444 27.6842C26.4889 28.0398 26.1333 28.2176 25.6889 28.3953C25.3333 28.5731 24.8 28.662 23.9111 28.7509C22.8444 28.8398 22.5778 28.8398 20 28.8398C17.4222 28.8398 17.0667 28.8398 16.0889 28.7509C15.1111 28.7509 14.5778 28.5731 14.3111 28.3953C13.8667 28.2176 13.5111 28.0398 13.1556 27.6842C12.8 27.3287 12.6222 26.9731 12.4444 26.5287C12.2667 26.1731 12.1778 25.6398 12.0889 24.7509C12 23.6842 12 23.4176 12 20.8398C12 18.262 12 17.9065 12.0889 16.9287C12.0889 15.9509 12.2667 15.4176 12.4444 15.1509C12.6222 14.7065 12.8 14.3509 13.1556 13.9953C13.5111 13.6398 13.8667 13.462 14.3111 13.2842C14.6667 13.1065 15.2 13.0176 16.0889 12.9287C17.0667 12.8398 17.4222 12.8398 20 12.8398ZM20 11.062C17.3333 11.062 16.9778 11.062 16 11.1509C14.9333 11.2398 14.2222 11.3287 13.6 11.5953C12.9778 11.862 12.4444 12.2176 11.9111 12.7509C11.3778 13.2842 11.0222 13.8176 10.7556 14.4398C10.4889 15.062 10.3111 15.7731 10.3111 16.8398C10.2222 17.9065 10.2222 18.1731 10.2222 20.8398C10.2222 23.5065 10.2222 23.862 10.3111 24.8398C10.4 25.9065 10.4889 26.6176 10.7556 27.2398C11.0222 27.862 11.3778 28.3953 11.9111 28.9287C12.4444 29.462 12.9778 29.8176 13.6 30.0842C14.2222 30.3509 14.9333 30.5287 16 30.5287C17.0667 30.6176 17.3333 30.6176 20 30.6176C22.6667 30.6176 23.0222 30.6176 24 30.5287C25.0667 30.4398 25.7778 30.3509 26.4 30.0842C27.0222 29.8176 27.5556 29.462 28.0889 28.9287C28.6222 28.3953 28.9778 27.862 29.2444 27.2398C29.5111 26.6176 29.6889 25.9065 29.6889 24.8398C29.7778 23.7731 29.7778 23.5065 29.7778 20.8398C29.7778 18.1731 29.7778 17.8176 29.6889 16.8398C29.6 15.7731 29.5111 15.062 29.2444 14.4398C28.9778 13.8176 28.6222 13.2842 28.0889 12.7509C27.5556 12.2176 27.0222 11.862 26.4 11.5953C25.7778 11.3287 25.0667 11.1509 24 11.1509C23.0222 11.062 22.6667 11.062 20 11.062Z" fill="#18242E"/>
<path d="M20 15.8618C17.2444 15.8618 15.0222 18.084 15.0222 20.8396C15.0222 23.5951 17.2444 25.8174 20 25.8174C22.7556 25.8174 24.9778 23.5951 24.9778 20.8396C24.9778 18.084 22.7556 15.8618 20 15.8618ZM20 24.1285C18.2222 24.1285 16.7111 22.7063 16.7111 20.8396C16.7111 18.9729 18.1333 17.5507 20 17.5507C21.8667 17.5507 23.2889 18.9729 23.2889 20.8396C23.2889 22.7063 21.7778 24.1285 20 24.1285Z" fill="#18242E"/>
<path d="M25.2444 16.7511C25.8826 16.7511 26.4 16.2337 26.4 15.5955C26.4 14.9573 25.8826 14.4399 25.2444 14.4399C24.6062 14.4399 24.0889 14.9573 24.0889 15.5955C24.0889 16.2337 24.6062 16.7511 25.2444 16.7511Z" fill="#18242E"/>
</svg>
