<svg width="40" height="41" viewBox="0 0 40 41" fill="none" xmlns="http://www.w3.org/2000/svg">
<path d="M20 38.6176C29.8184 38.6176 37.7778 30.6582 37.7778 20.8398C37.7778 11.0214 29.8184 3.06201 20 3.06201C10.1816 3.06201 2.22222 11.0214 2.22222 20.8398C2.22222 30.6582 10.1816 38.6176 20 38.6176Z" stroke="#18242E" stroke-width="1.77778" stroke-miterlimit="10"/>
<path d="M16.3556 28.7509C23.7333 28.7509 27.7333 22.6176 27.7333 17.3732C27.7333 17.1954 27.7333 17.0176 27.7333 16.8398C28.5333 16.3065 29.1556 15.5954 29.7778 14.7954C29.0667 15.1509 28.2667 15.3287 27.4667 15.4176C28.2667 14.8843 28.8889 14.1732 29.2444 13.1954C28.4444 13.6398 27.6444 13.9954 26.6667 14.1732C25.9556 13.3732 24.8889 12.9287 23.7333 12.9287C21.5111 12.9287 19.7333 14.7065 19.7333 16.9287C19.7333 17.2843 19.7333 17.5509 19.8222 17.8176C16.4444 17.6398 13.5111 16.0398 11.5556 13.6398C11.2 14.262 11.0222 14.8843 11.0222 15.6843C11.0222 17.1065 11.7333 18.262 12.8 19.062C12.1778 19.062 11.5556 18.8843 11.0222 18.5287C11.0222 18.5287 11.0222 18.5287 11.0222 18.6176C11.0222 20.5732 12.4444 22.1732 14.2222 22.5287C13.8667 22.6176 13.5111 22.7065 13.1556 22.7065C12.8889 22.7065 12.6222 22.7065 12.4444 22.6176C12.9778 24.2176 14.4 25.3732 16.1778 25.3732C14.8444 26.4398 13.0667 27.062 11.2 27.062C10.8444 27.062 10.5778 27.062 10.2222 26.9732C12 28.1287 14.1333 28.7509 16.3556 28.7509Z" fill="#18242E"/>
</svg>
