<svg width="40" height="41" viewBox="0 0 40 41" fill="none" xmlns="http://www.w3.org/2000/svg">
<path d="M20 38.6176C29.8184 38.6176 37.7778 30.6582 37.7778 20.8398C37.7778 11.0214 29.8184 3.06201 20 3.06201C10.1816 3.06201 2.22222 11.0214 2.22222 20.8398C2.22222 30.6582 10.1816 38.6176 20 38.6176Z" stroke="#18242E" stroke-width="1.77778" stroke-miterlimit="10"/>
<path d="M29.3333 16.129C29.0667 15.2401 28.4444 14.6178 27.6444 14.3512C26.1333 13.9067 20 13.9067 20 13.9067C20 13.9067 13.8667 13.9067 12.3556 14.3512C11.5556 14.6178 10.8444 15.2401 10.6667 16.129C10.2222 17.6401 10.2222 20.8401 10.2222 20.8401C10.2222 20.8401 10.2222 24.0401 10.6667 25.5512C10.9333 26.4401 11.5556 27.0623 12.3556 27.329C13.8667 27.7734 20 27.7734 20 27.7734C20 27.7734 26.1333 27.7734 27.6444 27.329C28.4444 27.0623 29.1556 26.4401 29.3333 25.5512C29.7778 24.0401 29.7778 20.8401 29.7778 20.8401C29.7778 20.8401 29.7778 17.6401 29.3333 16.129ZM17.9556 23.7734V17.9956L23.1111 20.929L17.9556 23.7734Z" fill="#18242E"/>
</svg>
